<svg width="860" height="460" xmlns="http://www.w3.org/2000/svg" xmlns:xlink="http://www.w3.org/1999/xlink" version="1.1" baseProfile="full" viewBox="0 0 860 460">
<rect width="860" height="460" x="0" y="0" fill="#0d1117"></rect>
<path d="M86.2 382.5L787.8 382.5" fill="none" pointer-events="visible" stroke="#21262d" stroke-dasharray="4,2" class="zr2-cls-12"></path>
<path d="M86.2 325.5L787.8 325.5" fill="none" pointer-events="visible" stroke="#21262d" stroke-dasharray="4,2" class="zr2-cls-12"></path>
<path d="M86.2 267.5L787.8 267.5" fill="none" pointer-events="visible" stroke="#21262d" stroke-dasharray="4,2" class="zr2-cls-12"></path>
<path d="M86.2 210.5L787.8 210.5" fill="none" pointer-events="visible" stroke="#21262d" stroke-dasharray="4,2" class="zr2-cls-12"></path>
<path d="M86.2 153.5L787.8 153.5" fill="none" pointer-events="visible" stroke="#21262d" stroke-dasharray="4,2" class="zr2-cls-12"></path>
<path d="M86.2 96.5L787.8 96.5" fill="none" pointer-events="visible" stroke="#21262d" stroke-dasharray="4,2" class="zr2-cls-12"></path>
<path d="M86.5 96L86.5 382" fill="none" pointer-events="visible" stroke="#21262d" stroke-dasharray="4,2" class="zr2-cls-12"></path>
<path d="M320.5 96L320.5 382" fill="none" pointer-events="visible" stroke="#21262d" stroke-dasharray="4,2" class="zr2-cls-12"></path>
<path d="M554.5 96L554.5 382" fill="none" pointer-events="visible" stroke="#21262d" stroke-dasharray="4,2" class="zr2-cls-12"></path>
<path d="M788.5 96L788.5 382" fill="none" pointer-events="visible" stroke="#21262d" stroke-dasharray="4,2" class="zr2-cls-12"></path>
<text dominant-baseline="central" text-anchor="middle" style="font-size:12px;font-family:-apple-system, BlinkMacSystemFont, Helvetica, Arial, sans-serif;" xml:space="preserve" y="-6" transform="translate(86.16 82)" fill="#7d8590">decode t/s</text>
<text dominant-baseline="central" text-anchor="middle" style="font-size:12px;font-family:-apple-system, BlinkMacSystemFont, Helvetica, Arial, sans-serif;" xml:space="preserve" y="-6" transform="translate(787.76 82)" fill="#7d8590">prefill t/s</text>
<text dominant-baseline="central" text-anchor="middle" style="font-size:12px;font-family:-apple-system, BlinkMacSystemFont, Helvetica, Arial, sans-serif;" xml:space="preserve" y="6" transform="translate(436.96 416)" fill="#7d8590">context tokens</text>
<path d="M86.2 382.5L787.8 382.5" fill="none" pointer-events="visible" stroke="#30363d" stroke-linecap="round" class="zr2-cls-12"></path>
<text dominant-baseline="central" text-anchor="end" style="font-size:12px;font-family:-apple-system, BlinkMacSystemFont, Helvetica, Arial, sans-serif;" transform="translate(78.16 382)" fill="#8b949e">0</text>
<text dominant-baseline="central" text-anchor="end" style="font-size:12px;font-family:-apple-system, BlinkMacSystemFont, Helvetica, Arial, sans-serif;" transform="translate(78.16 324.8)" fill="#8b949e">20</text>
<text dominant-baseline="central" text-anchor="end" style="font-size:12px;font-family:-apple-system, BlinkMacSystemFont, Helvetica, Arial, sans-serif;" transform="translate(78.16 267.6)" fill="#8b949e">40</text>
<text dominant-baseline="central" text-anchor="end" style="font-size:12px;font-family:-apple-system, BlinkMacSystemFont, Helvetica, Arial, sans-serif;" transform="translate(78.16 210.4)" fill="#8b949e">60</text>
<text dominant-baseline="central" text-anchor="end" style="font-size:12px;font-family:-apple-system, BlinkMacSystemFont, Helvetica, Arial, sans-serif;" transform="translate(78.16 153.2)" fill="#8b949e">80</text>
<text dominant-baseline="central" text-anchor="end" style="font-size:12px;font-family:-apple-system, BlinkMacSystemFont, Helvetica, Arial, sans-serif;" transform="translate(78.16 96)" fill="#8b949e">100</text>
<text dominant-baseline="central" text-anchor="start" style="font-size:12px;font-family:-apple-system, BlinkMacSystemFont, Helvetica, Arial, sans-serif;" transform="translate(795.76 382)" fill="#8b949e">0</text>
<text dominant-baseline="central" text-anchor="start" style="font-size:12px;font-family:-apple-system, BlinkMacSystemFont, Helvetica, Arial, sans-serif;" transform="translate(795.76 310.5)" fill="#8b949e">500</text>
<text dominant-baseline="central" text-anchor="start" style="font-size:12px;font-family:-apple-system, BlinkMacSystemFont, Helvetica, Arial, sans-serif;" transform="translate(795.76 239)" fill="#8b949e">1,000</text>
<text dominant-baseline="central" text-anchor="start" style="font-size:12px;font-family:-apple-system, BlinkMacSystemFont, Helvetica, Arial, sans-serif;" transform="translate(795.76 167.5)" fill="#8b949e">1,500</text>
<text dominant-baseline="central" text-anchor="start" style="font-size:12px;font-family:-apple-system, BlinkMacSystemFont, Helvetica, Arial, sans-serif;" transform="translate(795.76 96)" fill="#8b949e">2,000</text>
<text dominant-baseline="central" text-anchor="middle" style="font-size:12px;font-family:-apple-system, BlinkMacSystemFont, Helvetica, Arial, sans-serif;" y="6" transform="translate(86.16 390)" fill="#8b949e">100</text>
<text dominant-baseline="central" text-anchor="middle" style="font-size:12px;font-family:-apple-system, BlinkMacSystemFont, Helvetica, Arial, sans-serif;" y="6" transform="translate(320.0267 390)" fill="#8b949e">1k</text>
<text dominant-baseline="central" text-anchor="middle" style="font-size:12px;font-family:-apple-system, BlinkMacSystemFont, Helvetica, Arial, sans-serif;" y="6" transform="translate(553.8933 390)" fill="#8b949e">10k</text>
<text dominant-baseline="central" text-anchor="middle" style="font-size:12px;font-family:-apple-system, BlinkMacSystemFont, Helvetica, Arial, sans-serif;" y="6" transform="translate(787.76 390)" fill="#8b949e">100k</text>
<g clip-path="url(#zr2-c0)">
<path d="M252 155.1L533.6 222.8L744.8 330.9L744.8 382L533.6 382L252 382Z" fill="#58a6ff" fill-opacity="0.1" class="zr2-cls-14"></path>
<path d="M252 155.1L533.6 222.8L744.8 330.9" fill="none" pointer-events="visible" stroke="#58a6ff" stroke-width="2.6" stroke-linejoin="bevel" class="zr2-cls-15"></path>
</g>
<g clip-path="url(#zr2-c1)">
<path d="M252 257.1L533.6 146.1L744.8 269.2" fill="none" pointer-events="visible" stroke="#3fb950" stroke-width="2.6" stroke-dasharray="10.4,5.2" stroke-linejoin="bevel" class="zr2-cls-15"></path>
</g>
<path d="M1 0A1 1 0 1 1 1 -0.1A1 1 0 0 1 1 0" transform="matrix(4.5,0,0,4.5,252.0346,155.1162)" fill="#58a6ff" stroke="#0d1117" stroke-width="0.3333333333333333" ecmeta_series_index="0" ecmeta_data_index="0" ecmeta_ssr_type="chart" class="zr2-cls-14"></path>
<path d="M1 0A1 1 0 1 1 1 -0.1A1 1 0 0 1 1 0" transform="matrix(4.5,0,0,4.5,533.6381,222.7838)" fill="#58a6ff" stroke="#0d1117" stroke-width="0.3333333333333333" ecmeta_series_index="0" ecmeta_data_index="1" ecmeta_ssr_type="chart" class="zr2-cls-14"></path>
<path d="M1 0A1 1 0 1 1 1 -0.1A1 1 0 0 1 1 0" transform="matrix(4.5,0,0,4.5,744.8408,330.9204)" fill="#58a6ff" stroke="#0d1117" stroke-width="0.3333333333333333" ecmeta_series_index="0" ecmeta_data_index="2" ecmeta_ssr_type="chart" class="zr2-cls-14"></path>
<path d="M1 0A1 1 0 1 1 1 -0.1A1 1 0 0 1 1 0" transform="matrix(3.5,0,0,3.5,252.0346,257.1195)" fill="#3fb950" stroke="#0d1117" stroke-width="0.42857142857142855" ecmeta_series_index="1" ecmeta_data_index="0" ecmeta_ssr_type="chart" class="zr2-cls-16"></path>
<path d="M1 0A1 1 0 1 1 1 -0.1A1 1 0 0 1 1 0" transform="matrix(3.5,0,0,3.5,533.6381,146.1244)" fill="#3fb950" stroke="#0d1117" stroke-width="0.42857142857142855" ecmeta_series_index="1" ecmeta_data_index="1" ecmeta_ssr_type="chart" class="zr2-cls-16"></path>
<path d="M1 0A1 1 0 1 1 1 -0.1A1 1 0 0 1 1 0" transform="matrix(3.5,0,0,3.5,744.8408,269.2345)" fill="#3fb950" stroke="#0d1117" stroke-width="0.42857142857142855" ecmeta_series_index="1" ecmeta_data_index="2" ecmeta_ssr_type="chart" class="zr2-cls-16"></path>
<text dominant-baseline="central" text-anchor="middle" style="font-size:11px;font-family:-apple-system, BlinkMacSystemFont, Helvetica, Arial, sans-serif;" y="-5.5" transform="translate(252.0346 144.8662)" fill="#8b949e">79.33</text>
<text dominant-baseline="central" text-anchor="middle" style="font-size:11px;font-family:-apple-system, BlinkMacSystemFont, Helvetica, Arial, sans-serif;" y="-5.5" transform="translate(533.6381 212.5338)" fill="#8b949e">55.67</text>
<text dominant-baseline="central" text-anchor="middle" style="font-size:11px;font-family:-apple-system, BlinkMacSystemFont, Helvetica, Arial, sans-serif;" y="-5.5" transform="translate(744.8408 320.6704)" fill="#8b949e">17.86</text>
<path d="M-5 -5l168.4 0l0 22l-168.4 0Z" transform="translate(670.56 27)" fill="rgb(0,0,0)" fill-opacity="0" stroke="#b7b9be" stroke-width="0" class="zr2-cls-12"></path>
<path d="M2 0L12 0A2 2 0 0 1 14 2L14 6A2 2 0 0 1 12 8L2 8A2 2 0 0 1 0 6L0 2A2 2 0 0 1 2 0Z" transform="translate(671.56 29)" fill="#58a6ff" stroke="#0d1117" stroke-width="2" stroke-linecap="butt" stroke-miterlimit="10" ecmeta_series_index="0" ecmeta_data_index="0" ecmeta_ssr_type="legend" ecmeta_silent="true" class="zr2-cls-12"></path>
<text dominant-baseline="central" text-anchor="start" style="font-size:12px;font-family:-apple-system, BlinkMacSystemFont, Helvetica, Arial, sans-serif;" xml:space="preserve" x="19" y="4" transform="translate(671.56 29)" fill="#8b949e">decode t/s</text>
<path d="M-1 -2l75.7 0l0 12l-75.7 0Z" transform="translate(671.56 29)" fill="none" pointer-events="visible" ecmeta_series_index="0" ecmeta_data_index="0" ecmeta_ssr_type="legend" class="zr2-cls-17"></path>
<path d="M2 0L12 0A2 2 0 0 1 14 2L14 6A2 2 0 0 1 12 8L2 8A2 2 0 0 1 0 6L0 2A2 2 0 0 1 2 0Z" transform="translate(765.24 29)" fill="#3fb950" stroke="#0d1117" stroke-width="2" stroke-linecap="butt" stroke-miterlimit="10" ecmeta_series_index="1" ecmeta_data_index="1" ecmeta_ssr_type="legend" ecmeta_silent="true" class="zr2-cls-12"></path>
<text dominant-baseline="central" text-anchor="start" style="font-size:12px;font-family:-apple-system, BlinkMacSystemFont, Helvetica, Arial, sans-serif;" xml:space="preserve" x="19" y="4" transform="translate(765.24 29)" fill="#8b949e">prefill t/s</text>
<path d="M-1 -2l64.8 0l0 12l-64.8 0Z" transform="translate(765.24 29)" fill="none" pointer-events="visible" ecmeta_series_index="1" ecmeta_data_index="1" ecmeta_ssr_type="legend" class="zr2-cls-17"></path>
<path d="M-5 -5l452.4 0l0 54l-452.4 0Z" transform="translate(31 23)" fill="rgb(0,0,0)" fill-opacity="0" stroke="#3c3c41" stroke-width="0" class="zr2-cls-12"></path>
<text dominant-baseline="central" text-anchor="start" style="font-size:18px;font-family:-apple-system, BlinkMacSystemFont, Helvetica, Arial, sans-serif;font-weight:600;" xml:space="preserve" y="9" transform="translate(31 23)" fill="#e6edf3">Ornith · single-agent depth</text>
<path d="M0 28l442.4 0l0 16l-442.4 0Z" transform="translate(31 23)" fill="none" pointer-events="visible" class="zr2-cls-12"></path>
<text dominant-baseline="central" text-anchor="start" style="font-size:12px;font-family:-apple-system, BlinkMacSystemFont, Helvetica, Arial, sans-serif;" xml:space="preserve" y="36" transform="translate(31 23)" fill="#7d8590">one stream · decode + prefill t/s vs context · gated-delta-net holds to 262144 ctx</text>
<defs >
<clipPath id="zr2-c0">
<path d="M84 94.7l706 0l0 288.6l-706 0Z" fill="#000" class="zr2-cls-13"></path>
</clipPath>
<clipPath id="zr2-c1">
<path d="M84 94.7l706 0l0 288.6l-706 0Z" fill="#000" class="zr2-cls-13"></path>
</clipPath>
</defs>
<style ><![CDATA[
.zr2-cls-12:hover {
pointer-events:none;
}
.zr2-cls-13:hover {
cursor:pointer;
fill:rgba(0,0,0,1);
}
.zr2-cls-14:hover {
cursor:pointer;
fill:rgba(96,182,255,1);
}
.zr2-cls-15:hover {
cursor:pointer;
}
.zr2-cls-16:hover {
cursor:pointer;
fill:rgba(69,203,88,1);
}
.zr2-cls-17:hover {
cursor:pointer;
fill:rgba(0,0,0,0);
}

]]>

</style>
</svg>