<svg width="860" height="460" xmlns="http://www.w3.org/2000/svg" xmlns:xlink="http://www.w3.org/1999/xlink" version="1.1" baseProfile="full" viewBox="0 0 860 460">
<rect width="860" height="460" x="0" y="0" fill="#0d1117"></rect>
<path d="M86.2 382.5L826 382.5" fill="none" pointer-events="visible" stroke="#21262d" stroke-dasharray="4,2" class="zr1-cls-7"></path>
<path d="M86.2 325.5L826 325.5" fill="none" pointer-events="visible" stroke="#21262d" stroke-dasharray="4,2" class="zr1-cls-7"></path>
<path d="M86.2 267.5L826 267.5" fill="none" pointer-events="visible" stroke="#21262d" stroke-dasharray="4,2" class="zr1-cls-7"></path>
<path d="M86.2 210.5L826 210.5" fill="none" pointer-events="visible" stroke="#21262d" stroke-dasharray="4,2" class="zr1-cls-7"></path>
<path d="M86.2 153.5L826 153.5" fill="none" pointer-events="visible" stroke="#21262d" stroke-dasharray="4,2" class="zr1-cls-7"></path>
<path d="M86.2 96.5L826 96.5" fill="none" pointer-events="visible" stroke="#21262d" stroke-dasharray="4,2" class="zr1-cls-7"></path>
<path d="M86.5 96L86.5 382" fill="none" pointer-events="visible" stroke="#21262d" stroke-dasharray="4,2" class="zr1-cls-7"></path>
<path d="M271.5 96L271.5 382" fill="none" pointer-events="visible" stroke="#21262d" stroke-dasharray="4,2" class="zr1-cls-7"></path>
<path d="M456.5 96L456.5 382" fill="none" pointer-events="visible" stroke="#21262d" stroke-dasharray="4,2" class="zr1-cls-7"></path>
<path d="M641.5 96L641.5 382" fill="none" pointer-events="visible" stroke="#21262d" stroke-dasharray="4,2" class="zr1-cls-7"></path>
<path d="M826.5 96L826.5 382" fill="none" pointer-events="visible" stroke="#21262d" stroke-dasharray="4,2" class="zr1-cls-7"></path>
<text dominant-baseline="central" text-anchor="middle" style="font-size:12px;font-family:-apple-system, BlinkMacSystemFont, Helvetica, Arial, sans-serif;" xml:space="preserve" y="-6" transform="translate(86.16 82)" fill="#7d8590">decode t/s</text>
<text dominant-baseline="central" text-anchor="middle" style="font-size:12px;font-family:-apple-system, BlinkMacSystemFont, Helvetica, Arial, sans-serif;" xml:space="preserve" y="6" transform="translate(456.08 416)" fill="#7d8590">context depth (tokens)</text>
<path d="M86.2 382.5L826 382.5" fill="none" pointer-events="visible" stroke="#30363d" stroke-linecap="round" class="zr1-cls-7"></path>
<text dominant-baseline="central" text-anchor="end" style="font-size:12px;font-family:-apple-system, BlinkMacSystemFont, Helvetica, Arial, sans-serif;" transform="translate(78.16 382)" fill="#8b949e">0</text>
<text dominant-baseline="central" text-anchor="end" style="font-size:12px;font-family:-apple-system, BlinkMacSystemFont, Helvetica, Arial, sans-serif;" transform="translate(78.16 324.8)" fill="#8b949e">20</text>
<text dominant-baseline="central" text-anchor="end" style="font-size:12px;font-family:-apple-system, BlinkMacSystemFont, Helvetica, Arial, sans-serif;" transform="translate(78.16 267.6)" fill="#8b949e">40</text>
<text dominant-baseline="central" text-anchor="end" style="font-size:12px;font-family:-apple-system, BlinkMacSystemFont, Helvetica, Arial, sans-serif;" transform="translate(78.16 210.4)" fill="#8b949e">60</text>
<text dominant-baseline="central" text-anchor="end" style="font-size:12px;font-family:-apple-system, BlinkMacSystemFont, Helvetica, Arial, sans-serif;" transform="translate(78.16 153.2)" fill="#8b949e">80</text>
<text dominant-baseline="central" text-anchor="end" style="font-size:12px;font-family:-apple-system, BlinkMacSystemFont, Helvetica, Arial, sans-serif;" transform="translate(78.16 96)" fill="#8b949e">100</text>
<text dominant-baseline="central" text-anchor="middle" style="font-size:12px;font-family:-apple-system, BlinkMacSystemFont, Helvetica, Arial, sans-serif;" y="6" transform="translate(86.16 390)" fill="#8b949e">100</text>
<text dominant-baseline="central" text-anchor="middle" style="font-size:12px;font-family:-apple-system, BlinkMacSystemFont, Helvetica, Arial, sans-serif;" y="6" transform="translate(271.12 390)" fill="#8b949e">1k</text>
<text dominant-baseline="central" text-anchor="middle" style="font-size:12px;font-family:-apple-system, BlinkMacSystemFont, Helvetica, Arial, sans-serif;" y="6" transform="translate(456.08 390)" fill="#8b949e">10k</text>
<text dominant-baseline="central" text-anchor="middle" style="font-size:12px;font-family:-apple-system, BlinkMacSystemFont, Helvetica, Arial, sans-serif;" y="6" transform="translate(641.04 390)" fill="#8b949e">100k</text>
<text dominant-baseline="central" text-anchor="middle" style="font-size:12px;font-family:-apple-system, BlinkMacSystemFont, Helvetica, Arial, sans-serif;" y="6" transform="translate(826 390)" fill="#8b949e">1000k</text>
<g clip-path="url(#zr1-c0)">
<path d="M253.7 148.3L367.3 153.2L427 160.4L486.3 173.5L543.6 191.8L601.8 222.7L661.7 263.6" fill="none" pointer-events="visible" stroke="#8b949e" stroke-width="2.6" stroke-dasharray="10.4,5.2" stroke-linejoin="bevel" class="zr1-cls-9"></path>
</g>
<path d="M1 0A1 1 0 1 1 1 -0.1A1 1 0 0 1 1 0" transform="matrix(3,0,0,3,253.696,148.338)" fill="#8b949e" stroke="#0d1117" stroke-width="0.5" ecmeta_series_index="0" ecmeta_data_index="0" ecmeta_ssr_type="chart" class="zr1-cls-10"></path>
<path d="M1 0A1 1 0 1 1 1 -0.1A1 1 0 0 1 1 0" transform="matrix(3,0,0,3,367.3401,153.2)" fill="#8b949e" stroke="#0d1117" stroke-width="0.5" ecmeta_series_index="0" ecmeta_data_index="1" ecmeta_ssr_type="chart" class="zr1-cls-10"></path>
<path d="M1 0A1 1 0 1 1 1 -0.1A1 1 0 0 1 1 0" transform="matrix(3,0,0,3,427.0036,160.35)" fill="#8b949e" stroke="#0d1117" stroke-width="0.5" ecmeta_series_index="0" ecmeta_data_index="2" ecmeta_ssr_type="chart" class="zr1-cls-10"></path>
<path d="M1 0A1 1 0 1 1 1 -0.1A1 1 0 0 1 1 0" transform="matrix(3,0,0,3,486.2749,173.506)" fill="#8b949e" stroke="#0d1117" stroke-width="0.5" ecmeta_series_index="0" ecmeta_data_index="3" ecmeta_ssr_type="chart" class="zr1-cls-10"></path>
<path d="M1 0A1 1 0 1 1 1 -0.1A1 1 0 0 1 1 0" transform="matrix(3,0,0,3,543.5562,191.81)" fill="#8b949e" stroke="#0d1117" stroke-width="0.5" ecmeta_series_index="0" ecmeta_data_index="4" ecmeta_ssr_type="chart" class="zr1-cls-10"></path>
<path d="M1 0A1 1 0 1 1 1 -0.1A1 1 0 0 1 1 0" transform="matrix(3,0,0,3,601.7824,222.698)" fill="#8b949e" stroke="#0d1117" stroke-width="0.5" ecmeta_series_index="0" ecmeta_data_index="5" ecmeta_ssr_type="chart" class="zr1-cls-10"></path>
<path d="M1 0A1 1 0 1 1 1 -0.1A1 1 0 0 1 1 0" transform="matrix(3,0,0,3,661.6968,263.596)" fill="#8b949e" stroke="#0d1117" stroke-width="0.5" ecmeta_series_index="0" ecmeta_data_index="6" ecmeta_ssr_type="chart" class="zr1-cls-10"></path>
<g clip-path="url(#zr1-c1)">
<path d="M253.7 148.1L367.3 153.8L427 160.6L486.3 174.1L543.6 193L601.8 223.3L661.7 263.9" fill="none" pointer-events="visible" stroke="#58a6ff" stroke-width="2.6" stroke-linejoin="bevel" class="zr1-cls-9"></path>
</g>
<path d="M1 0A1 1 0 1 1 1 -0.1A1 1 0 0 1 1 0" transform="matrix(3,0,0,3,253.696,148.052)" fill="#58a6ff" stroke="#0d1117" stroke-width="0.5" ecmeta_series_index="1" ecmeta_data_index="0" ecmeta_ssr_type="chart" class="zr1-cls-11"></path>
<path d="M1 0A1 1 0 1 1 1 -0.1A1 1 0 0 1 1 0" transform="matrix(3,0,0,3,367.3401,153.772)" fill="#58a6ff" stroke="#0d1117" stroke-width="0.5" ecmeta_series_index="1" ecmeta_data_index="1" ecmeta_ssr_type="chart" class="zr1-cls-11"></path>
<path d="M1 0A1 1 0 1 1 1 -0.1A1 1 0 0 1 1 0" transform="matrix(3,0,0,3,427.0036,160.636)" fill="#58a6ff" stroke="#0d1117" stroke-width="0.5" ecmeta_series_index="1" ecmeta_data_index="2" ecmeta_ssr_type="chart" class="zr1-cls-11"></path>
<path d="M1 0A1 1 0 1 1 1 -0.1A1 1 0 0 1 1 0" transform="matrix(3,0,0,3,486.2749,174.078)" fill="#58a6ff" stroke="#0d1117" stroke-width="0.5" ecmeta_series_index="1" ecmeta_data_index="3" ecmeta_ssr_type="chart" class="zr1-cls-11"></path>
<path d="M1 0A1 1 0 1 1 1 -0.1A1 1 0 0 1 1 0" transform="matrix(3,0,0,3,543.5562,192.954)" fill="#58a6ff" stroke="#0d1117" stroke-width="0.5" ecmeta_series_index="1" ecmeta_data_index="4" ecmeta_ssr_type="chart" class="zr1-cls-11"></path>
<path d="M1 0A1 1 0 1 1 1 -0.1A1 1 0 0 1 1 0" transform="matrix(3,0,0,3,601.7824,223.27)" fill="#58a6ff" stroke="#0d1117" stroke-width="0.5" ecmeta_series_index="1" ecmeta_data_index="5" ecmeta_ssr_type="chart" class="zr1-cls-11"></path>
<path d="M1 0A1 1 0 1 1 1 -0.1A1 1 0 0 1 1 0" transform="matrix(3,0,0,3,661.6968,263.882)" fill="#58a6ff" stroke="#0d1117" stroke-width="0.5" ecmeta_series_index="1" ecmeta_data_index="6" ecmeta_ssr_type="chart" class="zr1-cls-11"></path>
<g clip-path="url(#zr1-c2)">
<path d="M253.7 114.6L367.3 121.2L427 129.7L486.3 146.6L543.6 170.1L601.8 207.3L661.7 255.6" fill="none" pointer-events="visible" stroke="#3fb950" stroke-width="2.6" stroke-linejoin="bevel" class="zr1-cls-9"></path>
</g>
<path d="M1 0A1 1 0 1 1 1 -0.1A1 1 0 0 1 1 0" transform="matrix(4,0,0,4,253.696,114.59)" fill="#3fb950" stroke="#0d1117" stroke-width="0.375" ecmeta_series_index="2" ecmeta_data_index="0" ecmeta_ssr_type="chart" class="zr1-cls-12"></path>
<path d="M1 0A1 1 0 1 1 1 -0.1A1 1 0 0 1 1 0" transform="matrix(4,0,0,4,367.3401,121.168)" fill="#3fb950" stroke="#0d1117" stroke-width="0.375" ecmeta_series_index="2" ecmeta_data_index="1" ecmeta_ssr_type="chart" class="zr1-cls-12"></path>
<path d="M1 0A1 1 0 1 1 1 -0.1A1 1 0 0 1 1 0" transform="matrix(4,0,0,4,427.0036,129.748)" fill="#3fb950" stroke="#0d1117" stroke-width="0.375" ecmeta_series_index="2" ecmeta_data_index="2" ecmeta_ssr_type="chart" class="zr1-cls-12"></path>
<path d="M1 0A1 1 0 1 1 1 -0.1A1 1 0 0 1 1 0" transform="matrix(4,0,0,4,486.2749,146.622)" fill="#3fb950" stroke="#0d1117" stroke-width="0.375" ecmeta_series_index="2" ecmeta_data_index="3" ecmeta_ssr_type="chart" class="zr1-cls-12"></path>
<path d="M1 0A1 1 0 1 1 1 -0.1A1 1 0 0 1 1 0" transform="matrix(4,0,0,4,543.5562,170.074)" fill="#3fb950" stroke="#0d1117" stroke-width="0.375" ecmeta_series_index="2" ecmeta_data_index="4" ecmeta_ssr_type="chart" class="zr1-cls-12"></path>
<path d="M1 0A1 1 0 1 1 1 -0.1A1 1 0 0 1 1 0" transform="matrix(4,0,0,4,601.7824,207.254)" fill="#3fb950" stroke="#0d1117" stroke-width="0.375" ecmeta_series_index="2" ecmeta_data_index="5" ecmeta_ssr_type="chart" class="zr1-cls-12"></path>
<path d="M1 0A1 1 0 1 1 1 -0.1A1 1 0 0 1 1 0" transform="matrix(4,0,0,4,661.6968,255.588)" fill="#3fb950" stroke="#0d1117" stroke-width="0.375" ecmeta_series_index="2" ecmeta_data_index="6" ecmeta_ssr_type="chart" class="zr1-cls-12"></path>
<text dominant-baseline="central" text-anchor="middle" style="font-size:11px;font-family:-apple-system, BlinkMacSystemFont, Helvetica, Arial, sans-serif;" y="-5.5" transform="translate(661.6968 245.838)" fill="#8b949e">44.2</text>
<path d="M-5 -5l436.5 0l0 22l-436.5 0Z" transform="translate(402.52 27)" fill="rgb(0,0,0)" fill-opacity="0" stroke="#b7b9be" stroke-width="0" class="zr1-cls-7"></path>
<path d="M2 0L12 0A2 2 0 0 1 14 2L14 6A2 2 0 0 1 12 8L2 8A2 2 0 0 1 0 6L0 2A2 2 0 0 1 2 0Z" transform="translate(403.52 29)" fill="#8b949e" stroke="#0d1117" stroke-width="2" stroke-linecap="butt" stroke-miterlimit="10" ecmeta_series_index="0" ecmeta_data_index="0" ecmeta_ssr_type="legend" ecmeta_silent="true" class="zr1-cls-7"></path>
<text dominant-baseline="central" text-anchor="start" style="font-size:12px;font-family:-apple-system, BlinkMacSystemFont, Helvetica, Arial, sans-serif;" xml:space="preserve" x="19" y="4" transform="translate(403.52 29)" fill="#8b949e">upstream defaults</text>
<path d="M-1 -2l115.8 0l0 12l-115.8 0Z" transform="translate(403.52 29)" fill="none" pointer-events="visible" ecmeta_series_index="0" ecmeta_data_index="0" ecmeta_ssr_type="legend" class="zr1-cls-13"></path>
<path d="M2 0L12 0A2 2 0 0 1 14 2L14 6A2 2 0 0 1 12 8L2 8A2 2 0 0 1 0 6L0 2A2 2 0 0 1 2 0Z" transform="translate(537.28 29)" fill="#58a6ff" stroke="#0d1117" stroke-width="2" stroke-linecap="butt" stroke-miterlimit="10" ecmeta_series_index="1" ecmeta_data_index="1" ecmeta_ssr_type="legend" ecmeta_silent="true" class="zr1-cls-7"></path>
<text dominant-baseline="central" text-anchor="start" style="font-size:12px;font-family:-apple-system, BlinkMacSystemFont, Helvetica, Arial, sans-serif;" xml:space="preserve" x="19" y="4" transform="translate(537.28 29)" fill="#8b949e">upstream + Turbo flags</text>
<path d="M-1 -2l144.1 0l0 12l-144.1 0Z" transform="translate(537.28 29)" fill="none" pointer-events="visible" ecmeta_series_index="1" ecmeta_data_index="1" ecmeta_ssr_type="legend" class="zr1-cls-13"></path>
<path d="M2 0L12 0A2 2 0 0 1 14 2L14 6A2 2 0 0 1 12 8L2 8A2 2 0 0 1 0 6L0 2A2 2 0 0 1 2 0Z" transform="translate(699.36 29)" fill="#3fb950" stroke="#0d1117" stroke-width="2" stroke-linecap="butt" stroke-miterlimit="10" ecmeta_series_index="2" ecmeta_data_index="2" ecmeta_ssr_type="legend" ecmeta_silent="true" class="zr1-cls-7"></path>
<text dominant-baseline="central" text-anchor="start" style="font-size:12px;font-family:-apple-system, BlinkMacSystemFont, Helvetica, Arial, sans-serif;" xml:space="preserve" x="19" y="4" transform="translate(699.36 29)" fill="#8b949e">Turbo build (+fusion)</text>
<path d="M-1 -2l130.6 0l0 12l-130.6 0Z" transform="translate(699.36 29)" fill="none" pointer-events="visible" ecmeta_series_index="2" ecmeta_data_index="2" ecmeta_ssr_type="legend" class="zr1-cls-13"></path>
<path d="M-5 -5l590.9 0l0 54l-590.9 0Z" transform="translate(31 23)" fill="rgb(0,0,0)" fill-opacity="0" stroke="#3c3c41" stroke-width="0" class="zr1-cls-7"></path>
<text dominant-baseline="central" text-anchor="start" style="font-size:18px;font-family:-apple-system, BlinkMacSystemFont, Helvetica, Arial, sans-serif;font-weight:600;" xml:space="preserve" y="9" transform="translate(31 23)" fill="#e6edf3">Ornith · decode, 3-way</text>
<path d="M0 28l580.9 0l0 16l-580.9 0Z" transform="translate(31 23)" fill="none" pointer-events="visible" class="zr1-cls-7"></path>
<text dominant-baseline="central" text-anchor="start" style="font-size:12px;font-family:-apple-system, BlinkMacSystemFont, Helvetica, Arial, sans-serif;" xml:space="preserve" y="36" transform="translate(31 23)" fill="#7d8590">decode t/s vs context depth · config ≈1.00× (no-op) · fusion +7–14% at every depth — the fork-only win</text>
<defs >
<clipPath id="zr1-c0">
<path d="M84 94.7l744 0l0 288.6l-744 0Z" fill="#000" class="zr1-cls-8"></path>
</clipPath>
<clipPath id="zr1-c1">
<path d="M84 94.7l744 0l0 288.6l-744 0Z" fill="#000" class="zr1-cls-8"></path>
</clipPath>
<clipPath id="zr1-c2">
<path d="M84 94.7l744 0l0 288.6l-744 0Z" fill="#000" class="zr1-cls-8"></path>
</clipPath>
</defs>
<style ><![CDATA[
.zr1-cls-7:hover {
pointer-events:none;
}
.zr1-cls-8:hover {
cursor:pointer;
fill:rgba(0,0,0,1);
}
.zr1-cls-9:hover {
cursor:pointer;
}
.zr1-cls-10:hover {
cursor:pointer;
fill:rgba(152,162,173,1);
}
.zr1-cls-11:hover {
cursor:pointer;
fill:rgba(96,182,255,1);
}
.zr1-cls-12:hover {
cursor:pointer;
fill:rgba(69,203,88,1);
}
.zr1-cls-13:hover {
cursor:pointer;
fill:rgba(0,0,0,0);
}

]]>

</style>
</svg>